<?xml version="1.0" encoding="UTF-8"?>
<svg id="Layer_1" xmlns="http://www.w3.org/2000/svg" version="1.1" viewBox="0 0 2000 1396.1">
  <!-- Generator: Adobe Illustrator 30.2.1, SVG Export Plug-In . SVG Version: 2.1.1 Build 1)  -->
  <defs>
    <style>
      .st0 {
        fill: #003e9c;
      }

      .st1 {
        fill: #180d6c;
      }

      .st2 {
        fill: #fff;
      }

      .st3 {
        fill: #00409e;
      }

      .st4 {
        fill: #003f9b;
      }

      .st5 {
        fill: #00adff;
      }
    </style>
  </defs>
  <path class="st2" d="M64.2,1131.4l.5-328.8s-.2-54,52.2-54.8,68.8,0,68.8,0l-104.5-68.4s-18.7-30.2-19.8-60.5,0-41.8,0-41.8c0,0,.5-31.3,33-51.7s154.5-99.5,154.5-99.5c0,0,37.4-18.1,63.2,10.4,18.1-27.5,44.5-23.6,44.5-23.6l156.7-.2s116.6,4,170.5,114c159.5-106.5,270,23.6,270,23.6,0,0,150.7-159.3,306.6,12.8,60-167,147.3-407.5,147.3-407.5,0,0,17.1-50.5,63.4-48.8s186.7,0,186.7,0c0,0,51.3-3.6,64.2,56.4,28-10.3,36-16.6,36-16.6,0,0,2.6-41.1,33.4-48.7-3.4-17.7,32.5-75.2,69.4-67.5,17.7-.7,34.2,14.6,38.5,24.8,42,11.1,48.8,37.7,48.8,37.7,0,0,34.3,14.7,32.5,51.9s-30.8,52.6-30.8,52.6c0,0,8.2,36.2-13.2,59.1-16.5,17.7-36.5,21.4-36.5,21.4,0,0-9.5.8-13.4,15.8s-12.8,44.6-46.8,50.7-57-6.7-68.6-23.9c-10.4,26.5-45.8,128.1-45.8,128.1,0,0-3.7,6.9,2.1,7.6s170.1,30.3,170.1,30.3c0,0,60.3,5.7,49.5,72s-46,246.7-46,246.7c0,0-2.8,42.4-57.5,44.8s-206.9-30.4-206.9-30.4l-28.6,10.1,154.6,102.1s22.7,17.9,22.1,42.4-2,80.9-2,80.9c0,0-.6,23.9-23.3,41.2s-162,105.7-162,105.7c0,0-39.4,19.7-71-7.8-13.4-12.2-23.9-28.1-23.9-28.1l-47.6,180.1s-10.1,46.6-65.1,46.6h-303.6s-50.1-4.2-43.3-62.7l7.1-42.4s-92.2,1.6-146.6-104.9c-42.6,0-78.1-.8-78.1-.8,0,0-21.9,2.6-36-14.1-13.5,16.2-39.1,14.7-39.1,14.7l-87.5-1.1s-16.2-.4-18.7-5.8c-2.9,6.5-28.3,5.7-28.3,5.7l-70.7-.9s-8.1,1.1-13.4-4.2c-32.5,17.6-72.9,11.7-72.9,11.7,0,0-42.9,2.9-85.8-26.1-18.5,26.1-42.9,20.6-42.9,20.6l-229.6-.8s-32.4.6-36.8-50.2Z"/>
  <path class="st1" d="M1099.6,822.2c71.1,0,125-46.2,134.8-114.7h-85.4c-7.2,22.5-26.1,36.8-49.4,36.8s-52.3-23.7-52.3-56.6,21.7-56.1,52.3-56.1,41.9,13.4,49.2,33.9h84.7c-9.5-67.1-62.7-111.8-133.6-111.8s-139.6,55.6-139.6,133.7,58.4,134.8,139.3,134.8h0ZM802.5,822.2c82,0,141.5-56.5,141.5-134.4s-59.5-134.4-141.5-134.4-141.5,56.2-141.5,134.4,59.2,134.4,141.5,134.4M469.4,731.4h-37.6v-162h37.6c48.4,0,80.7,32.2,80.7,80.7s-32.3,81.3-80.7,81.3M473.6,486.8h-132.4v327.1h132.4c98.8,0,168.8-68.4,168.8-163.8s-69.8-163.3-168.8-163.3"/>
  <path class="st1" d="M1567.3,1141.1c1.6,3.3,4.3,4.9,7.9,4.9s3-.7,4.9-2l151.6-101.4c3-1.6,4.4-4.3,4.4-7.9v-40.4c0-3.9-1.5-6.6-4.4-7.9l-151.6-99.9c-1.3-1.3-3-2-4.9-2-3.3,0-6.1,1.5-8.4,4.4l-20.2,31.5c-1.6,2-2.2,4.2-1.7,6.6.5,2.5,1.9,4.5,4.2,6.2l112.2,73.8c2.6,1.6,3.9,4.2,3.9,7.6s-1.3,6-3.9,7.6l-112.2,74.8c-4.9,3.9-5.9,8.2-3,12.8l21.2,31Z"/>
  <path class="st1" d="M273.3,496.2c-1.6-3.1-4-4.7-7.5-4.7s-2.8.6-4.7,1.9l-143.9,96.3c-2.8,1.6-4.2,4-4.2,7.5v38.3c0,3.7,1.4,6.2,4.2,7.5l143.9,94.9c1.2,1.2,2.8,1.9,4.7,1.9,3.1,0,5.8-1.4,7.9-4.2l19.2-29.9c1.6-1.9,2.1-4,1.6-6.3-.5-2.3-1.8-4.3-4-5.8l-106.5-70.1c-2.5-1.6-3.7-4-3.7-7.2s1.2-5.7,3.7-7.2l106.5-71c4.7-3.7,5.6-7.8,2.8-12.1l-20.1-29.4Z"/>
  <path class="st2" d="M742.6,678.4c29.7-7.6,42.2-20.1,49.8-49.8,2.2-8.6,14.5-8.6,16.6,0,7.6,29.7,20.1,42.2,49.8,49.8,8.6,2.2,8.6,14.5,0,16.6-29.7,7.6-42.2,20.1-49.8,49.8-2.2,8.6-14.5,8.6-16.6,0-7.6-29.7-20.1-42.2-49.8-49.8-8.6-2.2-8.6-14.5,0-16.6"/>
  <path class="st5" d="M1759.3,211.2c32.6-9.4,47.8-24.6,57.2-57.2,3.5-12.3,20.8-12.3,24.3,0,9.4,32.6,24.6,47.8,57.2,57.2,12.3,3.5,12.3,20.8,0,24.3-32.6,9.4-47.8,24.6-57.2,57.2-3.5,12.3-20.8,12.3-24.3,0-9.4-32.6-24.6-47.8-57.2-57.2-12.3-3.5-12.3-20.8,0-24.3"/>
  <path class="st1" d="M1845.1,95.5c8-2.1,11.4-5.5,13.5-13.5.6-2.5,4.1-2.5,4.8,0,2.1,8,5.5,11.4,13.5,13.5,2.5.6,2.5,4.1,0,4.8-8,2.1-11.4,5.5-13.5,13.5-.6,2.5-4.1,2.5-4.8,0-2.1-8-5.5-11.4-13.5-13.5-2.5-.6-2.5-4.1,0-4.8"/>
  <path class="st5" d="M1454.2,183.5s2-15.4,18.8-14.4,163.5-.1,163.5-.1c0,0,10.6-1.8,6.3,14.5s-35.6,99.2-35.6,99.2c0,0-6.1,18.8,6.1,19.2s72.2,0,72.2,0c0,0,11.8-2.2,5.7,15.7-124,345.5-311.3,1007.1-311.3,1007.1,0,0-1.1,6-9.6,6.1s-266.3,2.5-266.3,2.5c0,0-8,.3-4.9-12.1,151.7-605.1,355-1137.9,355-1137.9Z"/>
  <path class="st1" d="M1875.6,142.3c14.8-3.8,21.1-10,24.9-24.9,1.1-4.3,7.2-4.3,8.3,0,3.8,14.8,10,21.1,24.9,24.9,4.3,1.1,4.3,7.2,0,8.3-14.8,3.8-21.1,10-24.9,24.9-1.1,4.3-7.2,4.3-8.3,0-3.8-14.8-10-21.1-24.9-24.9-4.3-1.1-4.3-7.2,0-8.3"/>
  <path class="st0" d="M1349,718c11.7,1.4,22.7-11,24.7-27.6,2-16.6-5.9-31.2-17.6-32.6-11.7-1.4-22.7,11-24.7,27.6-2,16.6,5.9,31.2,17.6,32.6"/>
  <path class="st4" d="M1475.6,661.6c-.5-.8-1.3-1.2-2.5-1.2s-.9.2-1.5.5l-47.3,25c-.9.4-1.4,1-1.4,1.9v10c0,1,.5,1.6,1.4,1.9l47.3,24.6c.4.3.9.5,1.5.5,1,0,1.9-.4,2.6-1.1l6.3-7.8c.5-.5.7-1,.5-1.6-.2-.6-.6-1.1-1.3-1.5l-35-18.2c-.8-.4-1.2-1-1.2-1.9s.4-1.5,1.2-1.9l35-18.5c1.5-1,1.8-2,.9-3.2l-6.6-7.6Z"/>
  <path class="st4" d="M1430.7,754.5c12.3-1,13.2,5.3,11.7,11.3-2.4,9.6-6.3,26.4-28,36-25.6,11.2-58-6.3-64.3-28.8-3.9-17.4,0-24.7,0-24.7,0,0,2.1-7.5,12.2-3.7s43.5,11.1,68.4,9.9Z"/>
  <path class="st5" d="M1653.3,169s6,1.1,2.2,13.2-35,93.7-35,93.7c0,0-4.7,12.1,9.5,13.4s66.9,0,66.9,0c0,0,17.3,3.5,12.5,18.6s-170,476.7-311.2,1014.2c-1.7,5.4-4.8,7.1-4.8,7.1,0,0,6.8,2,12.4,0s8.2-13,10.4-20.9c78.6-332.7,304.6-996.1,304.6-996.1,0,0,3.8-8.6-1.8-18.6s-56.8-118.7-56.8-118.7c0,0-2.2-5.9-9-5.8Z"/>
  <path class="st5" d="M1684.4,522s.5-12.1,10.5-10.9,188.6,34.2,188.6,34.2c0,0,14.5.4,11.1,13.2s-42.3,244-42.3,244c0,0,1.7,12-15,9.4s-184.1-32.9-184.1-32.9c0,0-7.7-.9-4.7-22.2s35.9-234.8,35.9-234.8Z"/>
  <path class="st2" d="M1660,760.5l34.3-231.2s0-7.5,4.6-6.8,181.3,33.6,181.3,33.6c0,0,3.4.3,2.8,3.1s-41.9,239.7-41.9,239.7c0,0,.6,2.1-3,1.6s-176.6-31.3-176.6-31.3c0,0-2.9,0-2.2-4.6s.7-4.1.7-4.1Z"/>
  <rect class="st3" x="1711.5" y="561.2" width="45.8" height="49.7" rx="5.3" ry="5.3" transform="translate(127.6 -291.3) rotate(10)"/>
  <rect class="st3" x="1771.4" y="585.6" width="82.8" height="10.9" rx="5.5" ry="5.5" transform="translate(142.4 -328.4) rotate(10.8)"/>
  <rect class="st3" x="1768.4" y="608.2" width="82.8" height="10.9" rx="5.5" ry="5.5" transform="translate(146.6 -327.5) rotate(10.8)"/>
  <rect class="st3" x="1738.8" y="650.4" width="106.1" height="10.9" rx="5.5" ry="5.5" transform="translate(154.2 -323.4) rotate(10.8)"/>
  <rect class="st3" x="1730.5" y="693.9" width="106.1" height="10.9" rx="5.5" ry="5.5" transform="translate(162.2 -321.1) rotate(10.8)"/>
  <rect class="st3" x="1726.1" y="737.4" width="106.1" height="10.9" rx="5.5" ry="5.5" transform="translate(170.2 -319.5) rotate(10.8)"/>
  <ellipse class="st3" cx="1718.8" cy="643.8" rx="11.9" ry="10.6" transform="translate(871.5 2272) rotate(-83)"/>
  <polygon class="st5" points="1573.9 749.5 1628.5 709.8 1636.5 699.4 1636.5 664.8 1659.2 640.3 1680.2 643.8 1684.9 668.8 1664.3 692.9 1659.2 733.7 1615.6 774.4 1570.2 792.7 1559.3 790.7 1573.9 749.5"/>
  <ellipse class="st3" cx="1711.5" cy="688.5" rx="11.9" ry="10.6" transform="translate(820.7 2304) rotate(-83)"/>
  <ellipse class="st3" cx="1704.8" cy="731" rx="11.9" ry="10.6" transform="translate(772.7 2334.7) rotate(-83)"/>
  <path class="st3" d="M1577.6,741.7s25.9-7.3,53.9-45c-.8-38.2,3-41,3-41,0,0,15.1-40,48.7-14.2,27.2,30.7-13.5,54.3-13.5,54.3l-17.5,48.3s-28.6,50.7-89.2,52c-3.7,3.2,2.4-7.6,2.4-7.6,0,0,46.9,1.7,89.8-61.1,2-27,5.4-38.9,5.4-38.9,0,0-.5-3.2,2.5-4.3s17.2-2.9,17.2-21-19.9-27.1-32.3-9.8c-17.9,25-3,55.5-3,55.5,0,0,4.1,11.9-5.3,7.1-2.1-2.3-4.8-7.8-4.8-7.8,0,0-25.7,37.3-58.7,46.3s1.5-12.8,1.5-12.8Z"/>
  <path class="st1" d="M1081.5,1053c-31.5,0-53.9-23.1-53.9-55.3s22.7-55,53.9-55,53.7,23.1,53.7,55-22.5,55.3-53.7,55.3h0ZM1157.8,878.8l-11,21.2c-21.4-18.3-49.1-29.3-79.6-29.3-72.4,0-126.2,55-126.2,127s53.8,126.9,126.2,126.9,46.9-6.9,65.9-19v7.5c0,30-23.4,48.5-52.6,48.5s-42.7-9.1-48.7-26h-83.9c11.6,59.8,61.8,95.9,133.4,95.9s135.3-49.1,135.3-128.5v-224.4h-58.8ZM815.7,871.4c-32.6,0-60.7,12.6-79.5,33.5l-11.9-26h-61v252.4h87v-134.8c0-32.1,15.6-51.1,42.7-51.1s32.9,14.6,32.9,44v141.9h87v-153.9c0-64.3-38.5-106-97.1-106M478.6,1062.5c-32.6,0-56.5-24.6-56.5-57.6s23.7-57.4,56.5-57.4,56.5,24.6,56.5,57.4-23.9,57.6-56.5,57.6M553.1,878.5l-8.9,19.5c-20.8-17.2-47.4-27.1-77.1-27.1-77.2,0-132.4,55.6-132.4,133.8s55.2,134.8,132.4,134.8,55.5-9.6,76.2-26.4l7.4,17.9h67.2v-252.4h-64.8ZM208.2,1048.7v-244.7h-91.3v327.2h207.8v-82.6h-116.5Z"/>
</svg>