<svg xmlns="http://www.w3.org/2000/svg" viewBox="0 0 160 146.4">
<!-- SVG created with Arrow, by QuiverAI (https://quiver.ai) -->
  <style type="text/css">.cls-0 {fill:#F9F9F9;}
.cls-1 {fill:#041033;}
.cls-2 {fill:url(#SVGID_1_);}
.cls-3 {fill:#7D87D8;}
.cls-4 {fill:#8065D8;}
.cls-5 {fill:#4248BF;}
.cls-6 {fill:#5B48C2;}
.cls-7 {fill:#A057E1;}
.cls-8 {fill:#2B47BB;}
.cls-9 {fill:#795ED3;}
.cls-10 {fill:#7949C1;}
.cls-11 {fill:#7E52CC;}
.cls-12 {fill:#7742C2;}
.cls-13 {fill:#7C48C7;}
.cls-14 {fill:#6546C1;}
.cls-15 {fill:#8053CC;}
.cls-16 {fill:#4052C1;}
.cls-17 {fill:#7F86DD;}
.cls-18 {fill:#7C83DC;}
.cls-19 {fill:#7E85DD;}</style>
  <path class="cls-1" d="m1.8 89h11.1c8.2 0 13.9 5 13.9 14.4 0 8.3-5.1 13.9-13.8 13.9h-11.2v-28.3zm4.9 24.3h5.9c4.5 0 8.8-2.3 8.8-9.7 0-7.5-4.7-10.2-9.1-10.2h-5.6v19.9z"/>
  <path class="cls-1" d="m40.4 96.2c6.3 0 10.7 4.2 10.7 11.3 0 5.3-4.1 10.2-10.7 10.2-6.8 0-11.1-4.1-11.1-10.2 0-6.4 4.4-11.3 11.1-11.3zm-6.2 11.3c0 3.5 2.3 6.5 5.7 6.5 3.6 0 6.3-2.5 6.3-6.5 0-3.4-2.3-6.8-5.8-6.8-3.7 0-6.2 2.7-6.2 6.8z"/>
  <path class="cls-1" d="m73.2 113.1c-1.5 2.9-4.4 4.6-8.7 4.6-6.7 0-10.7-4.3-10.7-10.4 0-5.4 4.1-11.1 10.5-11.1 4 0 7.2 1.5 8.9 5.4l-4 2c-1-1.7-2.4-3-4.9-3-3.2 0-5.6 2.5-5.6 6.7 0 3.7 2.4 6.6 5.8 6.6 2 0 4-1 4.8-2.8l3.9 2z"/>
  <linearGradient id="SVGID_1_" x1="77.4" x2="156.6" y1="109.4" y2="109.4" gradientUnits="userSpaceOnUse">
    <stop stop-color="#2B47BB" offset="0"/>
    <stop stop-color="#6E3DCC" offset="1"/>
  </linearGradient>
  <path class="cls-2" d="m77.4 89.4h4.5v24h12.6v3.7h-17.1v-27.7zm32.1 25.5c-1.1 1.6-3.1 2.7-6.3 2.7-4 0-6.8-2-6.8-5.7 0-4.8 4.5-6.5 10.8-6.5h2.2v-0.9c0-2.1-1.8-3.9-4.4-4-2.1 0-3.8 1.1-4.4 2.9l-3.4-1.7c1.3-3 4.2-5 8.2-5 4.3 0 8.2 1.9 8.2 7.8v10l0.2 2.6h-4.2l-0.1-2.2zm-2.5-6.3c-3.9 0-6.4 0.8-6.4 3.1 0 1.9 1.8 2.8 3.5 2.8 2.5 0 5.3-1.6 5.3-4v-2l-2.4 0.1zm23.7-2.7c0-2.8-1.6-5.2-4.3-5.2s-4.7 1.9-4.7 5.2v11.2h-4.3v-20h4.2v3c1.3-1.9 3.1-3.4 6.3-3.4 4.5 0 7.5 2.7 7.5 7.9v12.5h-4.7v-11.2zm11.7 12.6c1 1.6 2.7 2.6 5 2.6 4.2 0 5.2-2.5 5.2-5.5v-1.6c-1.5 1.9-3.7 2.9-6 2.9-5 0-8.5-3.5-8.5-9.7 0-5.3 3.3-10.5 8.8-10.5 2.7 0 4.7 0.9 5.7 2.9v-2.5h4v18.6c0 6.7-4.4 8.9-9.4 8.9-3.6 0-6.6-1-8.3-4l3.5-2.1zm4.8-5c3.2-0.1 5.4-2.1 5.4-6.1 0-3.8-2.2-6.7-5.2-6.7-3.3-0.2-5 2.4-5 6.4 0.2 3.8 2.3 6.4 4.8 6.4z"/>
  <path class="cls-1" d="m3.2 132.5 1.3-4.5h0.5l1.4 4.5h-0.5l-0.3-0.9h-1.6l-0.3 0.9h-0.5zm0.9-1.4h1.3l-0.7-2.2-0.6 2.2z"/>
  <path class="cls-1" d="m7.5 128h0.5v4.5h-0.5v-4.5z"/>
  <path class="cls-1" d="m14 132.5-2-3.6v3.6h-0.5v-4.5h0.4l2 3.5v-3.5h0.5v4.5h-0.4z"/>
  <path class="cls-1" d="m15.8 132.5 1.4-4.4h0.4l1.4 4.4h-0.5l-0.3-1h-1.7l-0.3 1h-0.5 0.1zm0.8-1.4h1.4l-0.7-2.2-0.7 2.2z"/>
  <path class="cls-1" d="m22.5 128v0.5h-1.3v4h-0.5v-4h-1.1v-0.5h2.9z"/>
  <path class="cls-1" d="m23.7 128h0.5v4.5h-0.5v-4.5z"/>
  <path class="cls-1" d="m26 128 1.1 3.6 1.1-3.6h0.5l-1.4 4.5h-0.4l-1.4-4.5h0.5z"/>
  <path class="cls-1" d="m32.5 128v0.5h-2v1.5h1.7v0.5h-1.8v1.5h2.1v0.5h-2.6v-4.5h2.6z"/>
  <path class="cls-1" d="m38.6 128v0.5h-2v1.5h1.8v0.5h-1.9v1.9h-0.5v-4.4h2.6z"/>
  <path class="cls-1" d="m41.1 132.5c-0.9 0-1.4-0.8-1.4-1.8v-0.7c0-1 0.5-1.9 1.6-1.9s1.4 0.9 1.4 1.9v0.6c0 1-0.3 2-1.6 1.9zm1.1-2.5c0-0.9-0.3-1.5-1.1-1.5s-1 0.6-1 1.5v0.6c0 0.9 0.3 1.4 1 1.4 0.8 0 1.1-0.5 1.1-1.4v-0.6z"/>
  <path class="cls-1" d="m46.5 132.5-0.9-1.9h-1v1.8h-0.5v-4.4h1.4c1 0 1.5 0.5 1.5 1.4 0 0.5-0.3 1-0.8 1.1l0.8 1.9-0.5 0.1zm-1-2.4c0.7 0 1-0.2 1-0.7s-0.3-0.9-1-0.9h-0.9v1.6h0.9z"/>
  <path class="cls-1" d="m50.2 131.1 1.3-3.1h0.6v4.5h-0.5v-3.5l-1.1 2.6h-0.4l-1.2-2.6v3.5h-0.6v-4.5h0.6l1.3 3.1z"/>
  <path class="cls-1" d="m53.4 132.5 1.4-4.4h0.4l1.6 4.4h-0.5l-0.3-1h-1.7l-0.4 1h-0.5zm1-1.4h1.4l-0.7-2.2-0.7 2.2z"/>
  <path class="cls-1" d="m60.2 128v0.5h-1.3v4h-0.5v-4h-1.1v-0.5h2.9z"/>
  <path class="cls-1" d="m66.1 128v0.5h-2v1.5h1.9v0.5h-1.9v1.9h-0.5v-4.4h2.5z"/>
  <path class="cls-1" d="m68.7 132.5c-0.9 0-1.5-0.8-1.5-1.8v-0.7c0-1 0.5-1.9 1.6-1.9s1.5 0.9 1.5 1.9v0.6c0 1-0.5 1.9-1.6 1.9zm1-2.5c0-0.9-0.2-1.5-1-1.5s-1.1 0.6-1.1 1.5v0.6c0 0.9 0.3 1.4 1.1 1.4s1.1-0.5 1.1-1.4l-0.1-0.6z"/>
  <path class="cls-1" d="m74 132.5-0.9-1.9h-0.9v1.8h-0.4v-4.3h1.3c1 0 1.4 0.4 1.4 1.3 0 0.5-0.3 1-0.8 1.1l0.8 1.9-0.5 0.1zm-0.9-2.4c0.6 0 0.9-0.2 0.9-0.7s-0.3-0.9-0.9-0.9h-0.8v1.6h0.8z"/>
  <path class="cls-1" d="m80.8 128v2.7c0 0.9-0.3 1.7-1.4 1.7s-1.4-0.7-1.3-1.7v-2.6h0.4v2.6c0 0.8 0.2 1.3 0.9 1.3s1.1-0.4 1-1.3v-2.6l0.4-0.1z"/>
  <path class="cls-1" d="m84.8 132.5-1.9-3.5v3.5h-0.4v-4.4h0.4l1.9 3.5v-3.5h0.6v4.4h-0.6z"/>
  <path class="cls-1" d="m89.4 129c-0.3-0.3-0.6-0.5-1-0.5-0.7 0-0.9 0.4-0.9 0.6 0 1.3 2.2 0.4 2.3 2 0 0.9-0.7 1.4-1.4 1.3-0.5 0-1.2 0-1.5-0.5l0.3-0.3c0.3 0.4 0.7 0.4 1.2 0.4s1-0.3 0.9-0.6c0-1.3-2.2-0.4-2.2-2 0-0.9 0.6-1.3 1.4-1.3 0.4 0 0.9 0.1 1.2 0.5l-0.3 0.4z"/>
  <path class="cls-1" d="m93.7 128v0.5h-1.1v4h-0.5v-3.9h-1.2v-0.6h2.8z"/>
  <path class="cls-1" d="m97.4 132.4-0.9-1.8h-0.9v1.8h-0.4v-4.3h1.3c1 0 1.4 0.4 1.4 1.3 0 0.5-0.3 1-0.8 1.1l0.8 1.9h-0.5zm-1-2.3c0.7 0 1-0.2 1-0.7s-0.3-0.9-1-0.9h-0.8v1.6h0.8z"/>
  <path class="cls-1" d="m102.1 128v2.7c0 0.9-0.4 1.8-1.5 1.7-1 0-1.4-0.7-1.3-1.7v-2.6h0.4v2.6c0 0.8 0.2 1.3 0.9 1.3s1-0.4 1-1.3v-2.6l0.5-0.1z"/>
  <path class="cls-1" d="m106.1 129.4c-0.2-0.5-0.5-0.9-1-0.9-0.7 0-1.1 0.6-1.1 1.5v0.6c0 0.9 0.4 1.4 1.1 1.4 0.4 0 0.8-0.3 1-0.6l0.5 0.2c-0.2 0.5-0.7 0.9-1.5 0.9-1 0-1.5-0.9-1.5-1.9v-0.5c0-1 0.5-2 1.5-2 0.6 0 1.3 0.4 1.5 1l-0.5 0.3z"/>
  <path class="cls-1" d="m110.4 128v0.5h-1.3v3.9h-0.5v-3.8h-1.2v-0.6h3z"/>
  <path class="cls-1" d="m114.5 128v2.7c0 0.9-0.4 1.8-1.5 1.7-1 0-1.4-0.7-1.4-1.7v-2.6h0.5v2.6c0 0.8 0.3 1.3 1 1.3s1-0.4 0.9-1.3v-2.6l0.5-0.1z"/>
  <path class="cls-1" d="m118.5 132.4-0.9-1.8h-1v1.8h-0.5v-4.3h1.4c1 0 1.5 0.4 1.5 1.3 0 0.5-0.3 1-0.9 1.1l0.9 1.9h-0.5zm-1-2.3c0.6 0 1-0.2 1-0.7s-0.4-0.9-1-0.9h-0.9v1.6h0.9z"/>
  <path class="cls-1" d="m122.9 128v0.5h-2v1.5h1.7v0.5h-1.7v1.5h2v0.4h-2.5v-4.4h2.5z"/>
  <path class="cls-1" d="m124.2 132.4v-4.3h1.3c1.1 0 1.6 0.8 1.6 1.9v0.6c0 1-0.5 1.8-1.6 1.8h-1.3zm2.4-2.4c0-0.9-0.2-1.5-1.1-1.5h-0.8v3.5h0.8c0.9 0 1.1-0.5 1.1-1.4v-0.6z"/>
  <path class="cls-1" d="m133.2 129.4c-0.2-0.5-0.5-0.9-1-0.9-0.7 0-1 0.6-1 1.5v0.6c0 0.9 0.3 1.4 1 1.4 0.4 0 0.8-0.3 1-0.6l0.5 0.2c-0.2 0.5-0.7 0.9-1.5 0.8-1 0-1.6-0.8-1.6-1.8v-0.5c0-1 0.5-2.1 1.5-2 0.6 0 1.4 0.4 1.6 1l-0.5 0.3z"/>
  <path class="cls-1" d="m136.5 132.5c-1 0-1.5-0.8-1.5-1.9v-0.6c0-1 0.5-1.9 1.5-1.9s1.6 0.9 1.6 1.9v0.6c0 1-0.5 1.9-1.6 1.9zm1.1-2.5c0-0.9-0.4-1.5-1.1-1.5s-1 0.6-1 1.5v0.6c0 0.9 0.4 1.4 1.1 1.4s1-0.5 1-1.4v-0.6z"/>
  <path class="cls-1" d="m142.2 132.4-2-3.4v3.5h-0.5v-4.4h0.5l2 3.4v-3.4h0.5v4.3h-0.5z"/>
  <path class="cls-1" d="m146.8 128v0.5h-1.2v3.9h-0.4v-3.8h-1.1v-0.6h2.7z"/>
  <path class="cls-1" d="m150.4 128v0.5h-2v1.5h1.7v0.5h-1.7v1.5h2v0.5h-2.6v-4.4h2.6z"/>
  <path class="cls-1" d="m154 132.4-1.9-3.4v3.5h-0.4v-4.4h0.4l2 3.4v-3.4h0.4v4.4l-0.5-0.1z"/>
  <path class="cls-1" d="m158.5 128v0.5h-1.1v3.9h-0.4v-3.8h-1.1v-0.6h2.6z"/>
  <linearGradient id="SVGID_00000034055756316415479290000000756420505314919214_" x1="63.87" x2="90.77" y1="141.5" y2="141.5" gradientUnits="userSpaceOnUse">
    <stop stop-color="#2B47BB" offset="0"/>
    <stop stop-color="#6E3DCC" offset="1"/>
  </linearGradient>
  <path d="m66.4 143.4-2.5-1.4v-0.5l2.5-1.5 0.2 0.6-1.9 1.1 1.9 1v0.7zm5.4 0.3h-0.7l-1-1.7-1 1.7h-0.8l1.4-2.2-1.3-2.3h0.7l1 1.8 1-1.8h0.8l-1.3 2.4 1.4 2.1zm5.2 0v-3.2l-1.1 2.6h-0.4l-1.3-2.6v3.2h-0.6v-4.5h0.8l1.2 3 1.3-3h0.7v4.5h-0.6zm2.7 0v-4.5h0.7v3.9h2v0.6h-2.7zm4.5 0.5 1.4-4.7v-0.3h0.1l0.1-0.2 0.4-0.1-2 5.4-0.5-0.1zm3.9-1.5 1.9-1-1.9-1.1 0.2-0.6 2.5 1.5v0.4l-2.6 1.4-0.1-0.6z" fill="url(#SVGID_00000034055756316415479290000000756420505314919214_)"/>
  <linearGradient id="SVGID_00000086655600493702071790000005588031399103129587_" x1="103.8" x2="131.6" y1="38.94" y2="38.94" gradientUnits="userSpaceOnUse">
    <stop stop-color="#384BC4" offset="0"/>
    <stop stop-color="#4238BD" offset=".4896"/>
    <stop stop-color="#6E3DCC" offset="1"/>
  </linearGradient>
  <path d="m103.9 39.4c8-0.4 13.5-2.5 13.8-14.3h0.3c0.4 11.5 4 13.6 13.5 14.3v0.3c-8.6 0.4-12.9 3.3-13.5 14.8h-0.3c-0.3-10.4-4.3-14.1-13.8-14.5v-0.6z" fill="url(#SVGID_00000086655600493702071790000005588031399103129587_)"/>
  <linearGradient id="SVGID_00000183235746957332661900000017025410554862568769_" x1="33.08" x2="98.92" y1="42.14" y2="42.14" gradientUnits="userSpaceOnUse">
    <stop stop-color="#2B47BB" offset="0"/>
    <stop stop-color="#4248BF" offset="1"/>
  </linearGradient>
  <path d="m87.7 81.6h-47.3c-2.5 0-4.7-2-4.7-4.6v-67.6c0-2.8 2-4.9 4.7-4.9h37.5v10.5c0 3.6 2.8 6.9 6.3 6.9h11.8c0.4 0.2 0.5 0.7 0.5 1.5v9c0.1 0.5 0.9 1.2 1.2 1.2 0.4-0.1 1.3-0.9 1.3-1.2v-9c0-1.5-0.4-3.4-1.5-4.3l-15.8-16c-0.8-0.7-1.8-1.2-3.2-1.2h-38.1c-3.9 0-7.3 3.1-7.3 7.5v67.6c0.3 4.1 3.1 7.1 7.3 7.1h47.3c1.9 0 1.9-2.5 0-2.5zm-7.2-75.9 13.4 13.4h-9.8c-2 0-3.6-1.7-3.6-4v-9.4z" fill="url(#SVGID_00000183235746957332661900000017025410554862568769_)"/>
  <path class="cls-5" d="m46 16-1-1.1-4.5 4.1c-0.3 0.4-0.3 0.7 0 1l4.2 4.4 1.3-1v-0.3l-3.5-3.5 3.5-3.5v-0.1zm10.2-1.1-1.3 1.1 3.6 3.6-3.5 3.6v0.4l1 0.9h0.4l4.1-4.3c0.4-0.2 0.4-0.7 0-1.1l-4.1-4.2h-0.2zm-4.5-1.9-4.5 13 0.3 0.5h1l0.4-0.4 4.5-12.7v-0.4l-0.4-0.3h-0.9l-0.4 0.3z"/>
  <path class="cls-8" d="m49.5 34.4h-8.5l-0.5 0.2v2.8l0.2 0.2h0.8l0.2-0.2 0.2-1.5h2.6v8.2h-1l-0.8 0.5v0.5l0.3 0.4h4.2l0.4-0.4v-0.6l-0.4-0.4h-1.1v-8.2h2.3l0.3 1.5 0.4 0.2h0.5l0.4-0.2v-2.8l-0.5-0.2z"/>
  <path class="cls-9" d="m54 36c0 0.5-0.1 1 0.6 1h13.3c1.2 0 1.2-1.5 0-1.5h-13.9l-0.5 0.5zm0 4-0.5 0.5c0 0.5 0.4 0.9 0.9 0.9h13.5c1.2 0 1.3-1.8 0-1.8h-13.9v0.4zm0 4-0.5 0.5c0 0.5 0.2 1 0.6 1h13.8c1.3 0 1.2-1.6 0-1.6h-13.9v0.1z"/>
  <path class="cls-17" d="m42.2 48.6-0.7 0.5c-0.1 0.5 0 1.3 0.9 1.3h25.5c1.2 0 1.2-1.8 0-1.8h-25.7zm0 5-0.7 0.5c-0.1 0.5 0.1 1.1 0.7 1.1h25.7c1.2 0 1.5-1.6 0-1.6h-25.7z"/>
  <linearGradient id="SVGID_00000059272996832554550340000017238382846098298148_" x1="39.71" x2="98.21" y1="53.75" y2="53.75" gradientUnits="userSpaceOnUse">
    <stop stop-color="#2F46B4" offset="0"/>
    <stop stop-color="#4348C0" offset="1"/>
  </linearGradient>
  <path d="m97.5 35.5h-22.5c0-0.5-0.4-0.9-1.1-0.9h-0.9c-0.5 0-1 0.4-1 0.9v1.5c0 0.4 0.5 0.6 0.7 0.6v17.4l0.5 0.4v0.5h0.5v-0.7h23.8c0.4 0 0.7-0.3 0.7-0.7v-18.1c0-0.7-0.5-0.9-0.7-0.9zm-0.5 17.1-5.5-5.7-3.9 3.6-6.9-7.1-6.7 6.8v-12.7h0.5l0.5-0.4v-0.4h22v15.9z" fill="url(#SVGID_00000059272996832554550340000017238382846098298148_)"/>
  <path class="cls-16" d="m88.7 39.5c-1.3 0.1-2.6 1.1-2.6 2.5s1.1 2.5 2.6 2.5c1.4 0 2.7-1 2.7-2.5 0-1.4-1.4-2.6-2.7-2.5z"/>
  <linearGradient id="SVGID_00000133522374433109366830000000627158227383718604_" x1="39.64" x2="99.01" y1="67.14" y2="67.14" gradientUnits="userSpaceOnUse">
    <stop stop-color="#2F46B4" offset="0"/>
    <stop stop-color="#4348C0" offset="1"/>
  </linearGradient>
  <path d="m97.6 58.5-1 0.1h-22.4l-0.3-1h-0.8l-0.4 1h-29.8v-0.6c0-0.3-0.3-0.4-0.5-0.4h-2.2c-0.2 0-0.5 0.1-0.5 0.4v2.5l0.5 0.4h0.7v16.7l-1.2 0.9c-0.2 0.6 0.3 1.7 0.5 1.7h1.4l0.6-0.8c0.9 0 1.3-1.4 0.2-1.5l-0.3-0.8v-16.2h0.4l0.5-0.4v-0.5h29.6c0.4 1.5 1.4 1 1.6 0h23 0.7l0.6-0.5h0.5v-0.4h-0.5l-0.9-0.6z" fill="url(#SVGID_00000133522374433109366830000000627158227383718604_)"/>
  <path class="cls-5" d="m72.1 23.6 1 0.8v0.2h0.6v-0.6c1.5-0.6 1-2.6-0.3-2.6-0.5 0-1.3 0.5-1.3 1v1.2z"/>
  <path class="cls-5" d="m73.1 25.7h0.6v1.7h-0.6v-1.7zm0 3h0.6v1.7h-0.6v-1.7zm0 2.8h0.6v1.5h-0.6v-1.5zm0 4h0.6v0.9h-0.6v-0.9z"/>
  <linearGradient id="SVGID_00000005252886926108208640000014794324897708417989_" x1="45.11" x2="52.11" y1="66.1" y2="66.1" gradientUnits="userSpaceOnUse">
    <stop stop-color="#7E87DD" offset="0"/>
    <stop stop-color="#7D86DD" offset="1"/>
  </linearGradient>
  <path d="m52.1 63.4h-6.4c-0.3 0-0.6 0.2-0.6 0.6v5h7v-5.6z" fill="url(#SVGID_00000005252886926108208640000014794324897708417989_)"/>
  <path class="cls-8" d="m45.1 70.2v5.2l0.4 0.5h6.4l0.2-0.3v-5.4h-7z"/>
  <path class="cls-16" d="m53.5 63.5v5.5h7v-5.6h-0.3-6.3l-0.4 0.1z"/>
  <path class="cls-5" d="m53.5 70.2v5.4l0.2 0.3h6.5l0.3-0.3v-5.4h-7z"/>
  <path class="cls-6" d="m61.7 63.4v5.6h7v-5l-0.5-0.6h-6.5z"/>
  <path class="cls-6" d="m61.7 70.2v5.4l0.2 0.3h6.2l0.6-0.4v-5.3h-7z"/>
  <linearGradient id="SVGID_00000023264588997505641630000005859223768154107616_" x1="72.81" x2="98.18" y1="69.34" y2="69.34" gradientUnits="userSpaceOnUse">
    <stop stop-color="#AE82E7" offset="0"/>
    <stop stop-color="#9B5CDB" offset="1"/>
  </linearGradient>
  <path d="m97.5 63.2h-24.4l-0.2 0.4-0.1 5.8 0.6 0.2v-6h1.1v12.4h23c0.4 0 0.7-0.4 0.7-0.9v-11.1c0-0.4-0.3-0.8-0.7-0.8zm-8.7 10.4h-12.2c-0.6 0-0.7-1.1 0-1.1h12.2c0.6 0 0.4 1.1 0 1.1zm5.8-3.4h-18.1c-0.9 0-0.6-1.2 0-1.2h18.1c0.6 0 0.6 1.2 0 1.2zm-0.2-3.3h-17.8c-1.1 0-1-1.3 0-1.3h17.8c1 0 0.8 1.3 0 1.3z" fill="url(#SVGID_00000023264588997505641630000005859223768154107616_)"/>
  <path class="cls-3" d="m72.9 63.6h1.5v12.4h-1l-0.4 0.4-0.1-0.8-0.1-6.2 0.2 0.1v-5.9"/>
  <path class="cls-14" d="m44.5 78.4v0.6h1.7v-0.6h-1.7zm3 0v0.6h1.6v-0.6h-1.6zm2.6 0v0.6h1.3l0.1-0.6h-1.4zm2.6 0v0.6h1.8v-0.6h-1.8zm3.3 0v0.6h1.9l0.1-0.6h-2zm3.2 0v0.6h1.9v-0.6h-1.9zm3.4 0v0.6h1.8v-0.6h-1.8zm3 0v0.6h1.9v-0.6h-1.9zm3.3 0v0.6h1.8v-0.6h-1.8z"/>
  <path class="cls-14" d="m72.2 78.4v0.6l0.5 0.1c0 0.9 1.2 0.9 1.2 0h0.7v-0.7h-0.7c0-0.9-1.2-0.9-1.2 0h-0.5z"/>
  <path class="cls-14" d="m76.2 78.4v0.6h1.8v-0.6h-1.8zm3.4 0v0.6h1.5v-0.6h-1.5zm2.8 0v0.6h1.5v-0.6h-1.5zm3 0v0.6h1.8v-0.6h-1.8zm3 0v0.6h1.7v-0.6h-1.7zm3 0v0.6h1.1v-0.6h-1.1zm3 0v0.6h1.7v-0.6h-1.7zm3.1 0v0.6h1.6v-0.6h-1.6zm3.2 0h-0.1v0.7h0.4c-0.1 0.5 0 1.3 0.5 1.3h2.4c0.3 0 0.2-0.3 0.2-2.9 0-0.6-0.7-0.5-1.5-0.5-0.1-0.5-1-0.4-0.9 0.1-1.1-0.1-0.7 1-0.7 1l-0.3 0.3z"/>
  <path class="cls-12" d="m100.5 58.9v0.6l0.5 0.1c-0.1 1 0.4 1.4 1.2 1.3v0.2h0.8v-0.2h0.7c0.5 0 0.4-0.5 0.4-2.8 0-0.5-0.2-0.6-0.7-0.6h-1.9c-0.6 0-0.6 1-0.6 1.4h-0.4z"/>
  <path class="cls-13" d="m123.2 55.1v2.6h2.7v-2.6h-2.7z"/>
  <path class="cls-14" d="m108.9 51.5v2h1.8v-2h-1.8z"/>
  <path class="cls-15" d="m129.7 47.9v1.5h1.4l0.3-0.3-0.1-1.1-1.6-0.1z"/>
  <path class="cls-14" d="m103.1 47.9c-0.6 1.5 0.5 1.7 1 1.5l0.3-0.4v-0.9l-0.4-0.2h-0.9z"/>
  <circle class="cls-14" cx="102.2" cy="39.6" r=".6"/>
  <circle class="cls-14" cx="133.4" cy="39.6" r=".6"/>
  <circle class="cls-14" cx="117.9" cy="55.7" r=".5"/>
  <path class="cls-14" d="m112.2 58.7v1.3l1.3 0.1 0.1-1.1-0.2-0.3h-1.2z"/>
  <path class="cls-14" d="m110.2 64h-1.1l-0.2 0.5 0.1 0.9h1.2l0.3-0.7-0.3-0.7z"/>
  <path class="cls-11" d="m117 62.9"/>
  <path class="cls-14" d="m117.2 62.9-0.1 0.8 0.5 0.4h0.5l0.4-0.4-0.1-0.7-0.5-0.3-0.7 0.2z"/>
  <path class="cls-13" d="m115.4 68.7-0.2 0.9 0.3 0.5h0.9l0.3-0.4-0.1-0.8-0.4-0.3-0.8 0.1z"/>
  <path class="cls-14" d="m109 70.9v0.8l0.4 0.2 0.6-0.2 0.2-0.6-0.2-0.4-0.8-0.1-0.2 0.3z"/>
  <path class="cls-14" d="m102.4 62.5h0.5v1.6h-0.7v-1.6m0 3h0.7v1.5h-0.7v-1.5zm0 2.7h0.7v1.2h-0.7v-1.2zm0 2.3h0.7v1.9h-0.7v-1.9zm0 3.2h0.7v1.8h-0.7v-1.8z"/>
</svg>